<svg width="104" height="105" viewBox="0 0 104 105" fill="none" xmlns="http://www.w3.org/2000/svg">
<path d="M4.848 97.9283C4.352 97.9283 3.808 97.9043 3.216 97.8563C2.624 97.8243 2.024 97.7683 1.416 97.6883C1.4 97.3203 1.384 96.7443 1.368 95.9603C1.352 95.1603 1.336 94.2323 1.32 93.1763C1.304 92.1043 1.288 90.9683 1.272 89.7683C1.256 88.5683 1.24 87.3603 1.224 86.1443C1.224 84.9283 1.216 83.7683 1.2 82.6643C1.2 81.5603 1.2 80.5923 1.2 79.7603C2.064 79.6643 2.888 79.5923 3.672 79.5443C4.472 79.4803 5.208 79.4483 5.88 79.4483C8.28 79.4483 10.144 79.8083 11.472 80.5283C12.8 81.2483 13.464 82.2723 13.464 83.6003C13.464 85.2963 12.312 86.6163 10.008 87.5603C11.368 87.9283 12.456 88.5443 13.272 89.4083C14.088 90.2723 14.496 91.2483 14.496 92.3363C14.496 93.4083 14.08 94.3683 13.248 95.2163C12.432 96.0643 11.296 96.7283 9.84 97.2083C8.4 97.6883 6.736 97.9283 4.848 97.9283ZM4.968 81.2003C4.968 83.5203 4.984 85.6563 5.016 87.6083C5.912 87.4643 6.696 87.2323 7.368 86.9123C8.056 86.5763 8.592 86.1763 8.976 85.7123C9.376 85.2483 9.576 84.7603 9.576 84.2483C9.576 83.6883 9.36 83.1843 8.928 82.7363C8.512 82.2723 7.952 81.9043 7.248 81.6323C6.56 81.3443 5.8 81.2003 4.968 81.2003ZM5.4 96.2243C6.264 96.2243 7.064 96.0883 7.8 95.8163C8.536 95.5443 9.128 95.1843 9.576 94.7363C10.024 94.2723 10.248 93.7523 10.248 93.1763C10.248 92.5523 10 91.9443 9.504 91.3523C9.024 90.7443 8.384 90.2243 7.584 89.7923C6.8 89.3603 5.96 89.0883 5.064 88.9763C5.128 91.8243 5.24 94.2403 5.4 96.2243ZM20.3046 97.9283C18.9446 97.9283 17.8326 97.6003 16.9686 96.9443C16.1206 96.2723 15.6966 95.4003 15.6966 94.3283C15.6966 93.3523 16.0486 92.4483 16.7526 91.6163C17.4726 90.7843 18.4646 90.0803 19.7286 89.5043C20.9926 88.9123 22.4406 88.5043 24.0726 88.2803C23.4966 86.8723 22.7046 86.1683 21.6966 86.1683C21.0886 86.1683 20.3046 86.4003 19.3446 86.8643C18.3846 87.3283 17.4086 87.9363 16.4166 88.6883L15.6966 86.2883C18.0806 84.9283 20.3366 84.2483 22.4646 84.2483C24.1286 84.2483 25.4646 84.7043 26.4726 85.6163C27.4806 86.5123 28.2166 87.9523 28.6806 89.9363C29.1446 91.9043 29.3766 94.5123 29.3766 97.7603C29.0726 97.7763 28.5286 97.7923 27.7446 97.8083C26.9766 97.8403 26.1446 97.8563 25.2486 97.8563C25.2486 97.3443 25.2406 96.8403 25.2246 96.3443C23.5766 97.4003 21.9366 97.9283 20.3046 97.9283ZM19.6566 94.1603C19.6566 94.6563 19.8486 95.0483 20.2326 95.3363C20.6326 95.6243 21.1606 95.7683 21.8166 95.7683C22.9686 95.7683 24.0806 95.2723 25.1526 94.2803C25.0566 92.5843 24.8726 91.1523 24.6006 89.9843C23.9766 90.1123 23.3686 90.3203 22.7766 90.6083C22.2006 90.8963 21.6726 91.2403 21.1926 91.6403C20.7286 92.0243 20.3526 92.4403 20.0646 92.8883C19.7926 93.3203 19.6566 93.7443 19.6566 94.1603ZM32.9498 100.928L32.8778 99.0083C34.1738 98.9443 35.2538 98.8083 36.1178 98.6003C36.9818 98.3923 37.6778 98.0803 38.2058 97.6643C38.7338 97.2323 39.1338 96.6403 39.4058 95.8883C38.3658 96.6083 37.2298 96.9683 35.9978 96.9683C34.9738 96.9683 34.0698 96.7203 33.2858 96.2243C32.5018 95.7283 31.8938 95.0403 31.4618 94.1603C31.0298 93.2643 30.8138 92.2323 30.8138 91.0643C30.8138 89.8003 31.0538 88.6563 31.5338 87.6323C32.0298 86.5923 32.6938 85.7683 33.5258 85.1603C34.3578 84.5523 35.2778 84.2483 36.2858 84.2483C36.7978 84.2483 37.3338 84.3283 37.8938 84.4883C38.4698 84.6483 39.0458 84.8643 39.6218 85.1363C39.6058 84.9443 39.5898 84.7443 39.5738 84.5363C40.2778 84.5043 40.9418 84.4803 41.5658 84.4643C42.2058 84.4483 42.9178 84.4403 43.7018 84.4403C43.7498 85.8003 43.7738 87.0163 43.7738 88.0883C43.7738 90.1683 43.6778 91.9523 43.4858 93.4403C43.2938 94.9283 42.9658 96.1603 42.5018 97.1363C42.0378 98.0963 41.3898 98.8563 40.5578 99.4163C39.7418 99.9763 38.7098 100.368 37.4618 100.592C36.2138 100.816 34.7098 100.928 32.9498 100.928ZM34.4378 90.2483C34.4378 91.6083 34.7098 92.6883 35.2538 93.4883C35.7978 94.2883 36.5258 94.6883 37.4378 94.6883C38.6378 94.6883 39.4618 94.0003 39.9098 92.6243C39.9258 92.2563 39.9338 91.8563 39.9338 91.4243C39.9338 90.9763 39.9258 90.5043 39.9098 90.0083C39.8938 89.5123 39.8698 88.9523 39.8378 88.3283C39.5338 87.7203 39.1178 87.2323 38.5898 86.8643C38.0778 86.4803 37.5338 86.2883 36.9578 86.2883C36.1738 86.2883 35.5578 86.6403 35.1098 87.3443C34.6618 88.0483 34.4378 89.0163 34.4378 90.2483ZM46.2006 82.8083V79.5683H50.2806V82.8083H46.2006ZM46.2966 97.8563C46.2806 97.3283 46.2646 96.6163 46.2486 95.7203C46.2326 94.8083 46.2166 93.7683 46.2006 92.6003C46.2006 91.4163 46.1926 90.1523 46.1766 88.8083C46.1766 87.4643 46.1766 86.0883 46.1766 84.6803C46.8966 84.6803 47.6486 84.6883 48.4326 84.7043C49.2326 84.7203 49.8566 84.7443 50.3046 84.7763C50.3046 85.9443 50.2966 87.1683 50.2806 88.4483C50.2806 89.7283 50.2726 90.9763 50.2566 92.1923C50.2566 93.3923 50.2486 94.4803 50.2326 95.4563C50.2166 96.4323 50.2006 97.2003 50.1846 97.7603C49.4486 97.7923 48.7446 97.8163 48.0726 97.8323C47.4006 97.8483 46.8086 97.8563 46.2966 97.8563ZM56.8502 97.8563C56.4982 97.8563 56.0662 97.8483 55.5542 97.8323C55.0422 97.8323 54.5462 97.8243 54.0662 97.8083C53.6022 97.7923 53.2342 97.7763 52.9622 97.7603C52.9622 95.7603 52.9622 93.8723 52.9622 92.0963C52.9782 90.3203 52.9942 88.7683 53.0102 87.4403C53.0422 86.0963 53.0662 85.0963 53.0822 84.4403C53.5942 84.4403 54.1942 84.4483 54.8822 84.4643C55.5702 84.4803 56.1862 84.5043 56.7302 84.5363C56.7462 84.8723 56.7622 85.3283 56.7782 85.9043C58.0902 84.8003 59.4022 84.2483 60.7142 84.2483C61.3862 84.2483 61.9702 84.3923 62.4662 84.6803C62.9622 84.9683 63.3782 85.4323 63.7142 86.0723C64.9782 84.8563 66.3542 84.2483 67.8422 84.2483C69.5542 84.2483 70.8182 85.1363 71.6342 86.9123C72.4662 88.6883 72.8822 91.4243 72.8822 95.1203C72.8822 95.5523 72.8742 95.9763 72.8582 96.3923C72.8582 96.7923 72.8422 97.2323 72.8102 97.7123C72.3622 97.7763 71.7622 97.8243 71.0102 97.8563C70.2582 97.8883 69.4822 97.9043 68.6822 97.9043C68.7302 97.2323 68.7622 96.5123 68.7782 95.7443C68.8102 94.9763 68.8262 94.2163 68.8262 93.4643C68.8262 90.9843 68.6742 89.1523 68.3702 87.9683C68.0822 86.7683 67.6342 86.1683 67.0262 86.1683C66.6102 86.1683 66.1542 86.4163 65.6582 86.9123C65.1782 87.4083 64.7942 88.0243 64.5062 88.7603C64.6342 89.5123 64.7222 90.3843 64.7702 91.3763C64.8342 92.3523 64.8662 93.4483 64.8662 94.6643C64.8662 95.7203 64.8422 96.7523 64.7942 97.7603C64.4742 97.7763 64.0662 97.7923 63.5702 97.8083C63.0902 97.8243 62.5862 97.8323 62.0582 97.8323C61.5462 97.8483 61.0822 97.8563 60.6662 97.8563C60.7142 97.0083 60.7462 96.0963 60.7622 95.1203C60.7942 94.1443 60.8102 93.2163 60.8102 92.3363C60.8102 90.8163 60.7622 89.6083 60.6662 88.7123C60.5862 87.8003 60.4422 87.1523 60.2342 86.7683C60.0422 86.3683 59.7702 86.1683 59.4182 86.1683C58.9862 86.1683 58.5222 86.4243 58.0262 86.9363C57.5462 87.4483 57.1382 88.0803 56.8022 88.8323C56.8182 90.0643 56.8262 91.4563 56.8262 93.0083C56.8422 94.5443 56.8502 96.1603 56.8502 97.8563ZM79.3905 97.9283C78.0305 97.9283 76.9185 97.6003 76.0545 96.9443C75.2065 96.2723 74.7825 95.4003 74.7825 94.3283C74.7825 93.3523 75.1345 92.4483 75.8385 91.6163C76.5585 90.7843 77.5505 90.0803 78.8145 89.5043C80.0785 88.9123 81.5265 88.5043 83.1585 88.2803C82.5825 86.8723 81.7905 86.1683 80.7825 86.1683C80.1745 86.1683 79.3905 86.4003 78.4305 86.8643C77.4705 87.3283 76.4945 87.9363 75.5025 88.6883L74.7825 86.2883C77.1665 84.9283 79.4225 84.2483 81.5505 84.2483C83.2145 84.2483 84.5505 84.7043 85.5585 85.6163C86.5665 86.5123 87.3025 87.9523 87.7665 89.9363C88.2305 91.9043 88.4625 94.5123 88.4625 97.7603C88.1585 97.7763 87.6145 97.7923 86.8305 97.8083C86.0625 97.8403 85.2305 97.8563 84.3345 97.8563C84.3345 97.3443 84.3265 96.8403 84.3105 96.3443C82.6625 97.4003 81.0225 97.9283 79.3905 97.9283ZM78.7425 94.1603C78.7425 94.6563 78.9345 95.0483 79.3185 95.3363C79.7185 95.6243 80.2465 95.7683 80.9025 95.7683C82.0545 95.7683 83.1665 95.2723 84.2385 94.2803C84.1425 92.5843 83.9585 91.1523 83.6865 89.9843C83.0625 90.1123 82.4545 90.3203 81.8625 90.6083C81.2865 90.8963 80.7585 91.2403 80.2785 91.6403C79.8145 92.0243 79.4385 92.4403 79.1505 92.8883C78.8785 93.3203 78.7425 93.7443 78.7425 94.1603ZM94.3877 100.616C93.7957 100.616 93.1237 100.6 92.3717 100.568C91.6357 100.552 91.0117 100.536 90.4997 100.52C90.4837 100.072 90.4677 99.4003 90.4517 98.5043C90.4517 97.6083 90.4437 96.5763 90.4277 95.4083C90.4117 94.2243 90.3957 92.9923 90.3797 91.7123C90.3797 90.4163 90.3797 89.1523 90.3797 87.9203C90.3797 86.6723 90.3797 85.5443 90.3797 84.5363C90.7317 84.5203 91.1557 84.5043 91.6517 84.4883C92.1477 84.4723 92.6517 84.4643 93.1637 84.4643C93.6917 84.4483 94.1397 84.4403 94.5077 84.4403C94.5077 84.6963 94.5077 84.9603 94.5077 85.2323C95.4677 84.5763 96.4757 84.2483 97.5317 84.2483C98.5557 84.2483 99.4677 84.5363 100.268 85.1123C101.068 85.6883 101.7 86.4803 102.164 87.4883C102.628 88.4803 102.86 89.6163 102.86 90.8963C102.86 92.1923 102.612 93.3763 102.116 94.4483C101.636 95.5043 100.98 96.3523 100.148 96.9923C99.3317 97.6163 98.4117 97.9283 97.3877 97.9283C96.4597 97.9283 95.4757 97.6563 94.4357 97.1123C94.4357 97.8963 94.4277 98.5923 94.4117 99.2003C94.4117 99.8083 94.4037 100.28 94.3877 100.616ZM96.4277 86.2163C95.7397 86.2163 95.0997 86.6083 94.5077 87.3923C94.5077 88.4963 94.4997 89.6483 94.4837 90.8483C94.4837 92.0323 94.4757 93.1843 94.4597 94.3043C94.7317 94.8323 95.0757 95.2483 95.4917 95.5523C95.9077 95.8563 96.3557 96.0083 96.8357 96.0083C97.5877 96.0083 98.1717 95.6243 98.5877 94.8563C99.0197 94.0883 99.2357 93.0243 99.2357 91.6643C99.2357 90.6243 99.1077 89.6963 98.8517 88.8803C98.6117 88.0483 98.2837 87.4003 97.8677 86.9363C97.4517 86.4563 96.9717 86.2163 96.4277 86.2163Z" fill="#EC6A56"/>
<path d="M80.313 24.9702C76.7856 30.326 65.8194 30.8291 60.9294 31.0062C58.1076 26.552 54.8373 16.8615 58.3647 11.5057C61.8921 6.14998 69.6649 4.82244 75.7257 8.54056C81.7866 12.2587 83.8403 19.6145 80.313 24.9702Z" fill="#FECB68"/>
<ellipse cx="4.29153" cy="3.87058" rx="4.29153" ry="3.87058" transform="matrix(0.852388 0.522911 -0.550039 0.835139 68.2355 12.1149)" fill="white"/>
<path d="M57.9553 27.8083C60.6987 40.4291 50.8839 51.4154 45.4553 58.3083C36.5189 55.6198 22.6987 49.4291 19.9553 36.8083C17.212 24.1875 22.7114 14.5907 34.4553 11.8083C46.1993 9.02589 55.212 15.1875 57.9553 27.8083Z" fill="#EC6A56"/>
<ellipse cx="39.1648" cy="31.728" rx="7.27458" ry="7.8043" transform="rotate(-5.11438 39.1648 31.728)" fill="white"/>
<path d="M58.6108 55.5583C60.1467 56.6984 60.9553 57.9918 60.9553 59.3083C60.9553 60.6248 60.1467 61.9181 58.6108 63.0583C57.0748 64.1984 54.8657 65.1452 52.2053 65.8035C49.545 66.4617 46.5272 66.8083 43.4553 66.8083C40.3834 66.8083 37.3657 66.4617 34.7053 65.8035C32.045 65.1452 29.8358 64.1984 28.2999 63.0583C26.7639 61.9181 25.9553 60.6248 25.9553 59.3083C25.9553 57.9918 26.7639 56.6984 28.2999 55.5583" stroke="#EC6A56" stroke-width="2" stroke-linecap="round"/>
</svg>
